<svg width="512" height="512" viewBox="0 0 512 512" fill="none" xmlns="http://www.w3.org/2000/svg">
<rect width="512" height="512" rx="64" fill="url(#gradient0_linear_1_1)"/>
<path d="M256 128C197.647 128 150 175.647 150 234V278C150 336.353 197.647 384 256 384C314.353 384 362 336.353 362 278V234C362 175.647 314.353 128 256 128Z" fill="white"/>
<path d="M214 192C214 175.431 227.431 162 244 162H268C284.569 162 298 175.431 298 192V320C298 336.569 284.569 350 268 350H244C227.431 350 214 336.569 214 320V192Z" fill="url(#gradient1_linear_1_1)"/>
<defs>
<linearGradient id="gradient0_linear_1_1" x1="0" y1="0" x2="512" y2="512" gradientUnits="userSpaceOnUse">
<stop stop-color="#3B82F6"/>
<stop offset="1" stop-color="#8B5CF6"/>
</linearGradient>
<linearGradient id="gradient1_linear_1_1" x1="214" y1="162" x2="298" y2="350" gradientUnits="userSpaceOnUse">
<stop stop-color="#3B82F6"/>
<stop offset="1" stop-color="#8B5CF6"/>
</linearGradient>
</defs>
</svg>